Coordinates
version=1
nRows=24
nColumns=38
inDegrees=no

Units are S.I. units (second, meters, Newtons, ...)
If the header above contains a line with 'inDegrees', this indicates whether rotational values are in degrees (yes) or radians (no).

endheader
time	pelvis_tilt	pelvis_list	pelvis_rotation	pelvis_tx	pelvis_ty	pelvis_tz	hip_flexion_r	hip_adduction_r	hip_rotation_r	knee_angle_r	ankle_angle_r	subtalar_angle_r	mtp_angle_r	hip_flexion_l	hip_adduction_l	hip_rotation_l	knee_angle_l	ankle_angle_l	subtalar_angle_l	mtp_angle_l	lumbar_extension	lumbar_bending	lumbar_rotation	arm_flex_r	arm_add_r	arm_rot_r	elbow_flex_r	pro_sup_r	wrist_flex_r	wrist_dev_r	arm_flex_l	arm_add_l	arm_rot_l	elbow_flex_l	pro_sup_l	wrist_flex_l	wrist_dev_l
1.6	2.89901	1.36495	-1.37355	1.03916	1.31197	0.973786	-0.104449	0.0770735	-0.132535	0.488766	0.2572	0	0	0.235465	-0.117047	-0.165151	0.497299	0.268213	0	0	-0.433937	0.086228	0.152464	0.387664	-0.41033	0.138764	1.16892	0.928298	0	0	0.185854	-0.364612	-0.0619934	1.31205	0.904204	0	0
1.61	2.91045	1.36438	-1.3858	1.03863	1.32283	0.973442	-0.119879	0.0724297	-0.133878	0.48655	0.26496	0	0	0.230358	-0.105676	-0.150372	0.421999	0.255012	0	0	-0.435384	0.0827754	0.153039	0.391007	-0.410713	0.139325	1.1658	0.9347	0	0	0.189274	-0.366398	-0.0594895	1.31083	0.903447	0	0
1.62	2.8979	1.36582	-1.37369	1.03794	1.33414	0.972395	-0.133099	0.0727008	-0.135817	0.4833	0.272951	0	0	0.235793	-0.105241	-0.154505	0.366097	0.250647	0	0	-0.432569	0.084436	0.155055	0.392039	-0.41303	0.141664	1.16511	0.937893	0	0	0.191346	-0.367542	-0.0561526	1.31057	0.90294	0	0
1.63	2.88436	1.36695	-1.36051	1.0372	1.34557	0.971231	-0.147107	0.0730394	-0.138526	0.479337	0.280686	0	0	0.238467	-0.104107	-0.157285	0.30698	0.243421	0	0	-0.430096	0.0861185	0.157914	0.391662	-0.416633	0.145915	1.16614	0.936777	0	0	0.194178	-0.3686	-0.0517828	1.31085	0.901077	0	0
1.64	2.86507	1.36867	-1.34167	1.03636	1.35714	0.969811	-0.16046	0.0742962	-0.140946	0.475287	0.288046	0	0	0.240764	-0.103447	-0.15928	0.248192	0.235775	0	0	-0.426706	0.0888386	0.161796	0.39009	-0.421112	0.148818	1.16815	0.939939	0	0	0.197252	-0.368624	-0.0479513	1.31179	0.898212	0	0
1.65	2.84336	1.36952	-1.32009	1.03534	1.36888	0.968283	-0.175191	0.0760848	-0.14362	0.470133	0.294969	0	0	0.240943	-0.102742	-0.161485	0.18957	0.225636	0	0	-0.42445	0.0922947	0.168007	0.390879	-0.418255	0.0905424	1.17759	0.689207	0	0	0.202807	-0.367995	-0.0407216	1.31227	0.892417	0	0
1.66	2.8168	1.37055	-1.29285	1.03417	1.38081	0.966514	-0.189968	0.0787723	-0.147671	0.464269	0.302488	0	0	0.24305	-0.103251	-0.167324	0.137767	0.216583	0	0	-0.420512	0.0975972	0.170216	0.384581	-0.432275	0.155055	1.17679	0.912834	0	0	0.204936	-0.367195	-0.038827	1.31265	0.891714	0	0
1.67	2.7885	1.36782	-1.26316	1.03263	1.39272	0.964711	-0.209098	0.0826023	-0.152782	0.45695	0.309197	0	0	0.239376	-0.103746	-0.168342	0.0849598	0.206089	0	0	-0.42303	0.105455	0.180002	0.403678	-0.412934	-0.00406084	1.14428	1.5708	0	0	0.215035	-0.363592	-0.0284187	1.31006	0.888508	0	0
1.68	2.75887	1.3701	-1.23161	1.0314	1.40527	0.962664	-0.224133	0.085854	-0.15735	0.448325	0.31472	0	0	0.239362	-0.102771	-0.166349	0.0344254	0.19558	0	0	-0.414901	0.110624	0.176976	0.375291	-0.441039	0.147462	1.18744	0.923173	0	0	0.21243	-0.363156	-0.0320802	1.31108	0.888672	0	0
1.69	2.72307	1.36908	-1.19387	1.02992	1.41772	0.960508	-0.241771	0.0911865	-0.160599	0.439744	0.319453	0	0	0.236995	-0.103826	-0.162262	0	0.190017	0	0	-0.412284	0.119269	0.181106	0.368603	-0.439864	0.100603	1.21802	0.877662	0	0	0.216125	-0.359907	-0.0293414	1.3099	0.88948	0	0
1.7	2.69773	1.36386	-1.16292	1.02844	1.42972	0.958514	-0.263904	0.0989463	-0.162117	0.430183	0.321696	0	0	0.249826	-0.107416	-0.160654	0	0.19618	0	0	-0.414806	0.127459	0.185403	0.355518	-0.44255	0.0777592	1.23472	0.826768	0	0	0.224436	-0.356344	-0.0227257	1.30668	0.890347	0	0
1.71	2.67165	1.35927	-1.13282	1.02695	1.44212	0.956452	-0.284676	0.105265	-0.163121	0.422522	0.324134	0	0	0.256685	-0.110352	-0.161102	0	0.203114	0	0	-0.415974	0.135973	0.189788	0.345587	-0.442965	0.0582807	1.24632	0.791354	0	0	0.23101	-0.352749	-0.0176581	1.3034	0.890309	0	0
1.72	2.65298	1.35223	-1.1105	1.0253	1.45466	0.954455	-0.307802	0.110872	-0.162937	0.416282	0.325983	0	0	0.257851	-0.11251	-0.162852	0	0.20961	0	0	-0.420977	0.145634	0.195502	0.352414	-0.433232	0.0267605	1.23164	0.765656	0	0	0.238947	-0.348979	-0.0112194	1.29875	0.889082	0	0
1.73	2.64784	1.3353	-1.10245	1.02299	1.46657	0.952702	-0.340328	0.117019	-0.160407	0.412076	0.326959	0	0	0.245633	-0.115829	-0.165635	0	0.215843	0	0	-0.444295	0.162492	0.212242	0.397069	-0.39753	-0.0948847	1.22902	0.765656	0	0	0.25678	-0.341616	0.00414732	1.29092	0.884767	0	0
1.74	2.64431	1.32609	-1.09752	1.02129	1.47961	0.950785	-0.36508	0.119316	-0.156501	0.410696	0.327631	0	0	0.236329	-0.115705	-0.172072	0	0.218955	0	0	-0.454267	0.169581	0.223564	0.418885	-0.384571	-0.169145	1.19218	0.765656	0	0	0.26865	-0.338764	0.0172174	1.28614	0.881015	0	0
1.75	2.64873	1.31665	-1.10247	1.01974	1.49296	0.948884	-0.389167	0.118802	-0.150574	0.413806	0.32869	0	0	0.222089	-0.114027	-0.179556	0	0.219629	0	0	-0.464214	0.17531	0.22942	0.445111	-0.388105	-0.0291229	1.10581	1.1266	0	0	0.274464	-0.33916	0.0237221	1.28439	0.87425	0	0
1.76	2.64433	1.3268	-1.10069	1.01938	1.50799	0.946428	-0.392141	0.111524	-0.145382	0.422478	0.331079	0	0	0.22279	-0.106283	-0.188581	0	0.216317	0	0	-0.442832	0.163339	0.219779	0.364748	-0.37963	-0.041897	1.15116	1.15059	0	0	0.26485	-0.347976	0.0200552	1.28862	0.875603	0	0
1.77	2.6458	1.32967	-1.10856	1.0185	1.52269	0.944165	-0.399357	0.101107	-0.139598	0.437778	0.334422	0	0	0.210792	-0.0996523	-0.196133	0	0.213664	0	0	-0.436614	0.155295	0.228334	0.370011	-0.381193	-0.201496	2.28233	1.15059	0	0	0.268894	-0.350859	0.0300217	1.28823	0.875674	0	0
1.78	2.65521	1.33335	-1.12405	1.01806	1.5372	0.941769	-0.402301	0.0907134	-0.130725	0.461128	0.335788	0	0	0.217496	-0.0969318	-0.216757	0.0468678	0.230293	0	0	-0.428847	0.144862	0.228965	0.390051	-0.369521	-0.171003	1.20444	1.15059	0	0	0.265756	-0.356376	0.0299203	1.29118	0.874045	0	0
1.79	2.66429	1.33434	-1.14233	1.01762	1.5518	0.939249	-0.403937	0.0789488	-0.12124	0.49248	0.336424	0	0	0.218358	-0.0964236	-0.23402	0.0967996	0.254931	0	0	-0.42602	0.136496	0.235676	0.375216	-0.368017	-0.159915	1.16066	1.15059	0	0	0.26433	-0.360264	0.0312658	1.29408	0.873053	0	0
1.8	2.67275	1.34196	-1.16243	1.01757	1.5671	0.936561	-0.395078	0.0622679	-0.114084	0.532286	0.335544	0	0	0.218464	-0.091703	-0.242626	0.128076	0.278436	0	0	-0.411511	0.120934	0.23644	0.344917	-0.381627	-0.138629	1.20688	1.5708	0	0	0.254911	-0.367551	0.0263002	1.30065	0.873213	0	0
1.81	2.69926	1.33632	-1.20054	1.01642	1.58104	0.934367	-0.395235	0.0438608	-0.108147	0.57972	0.330189	0	0	0.202496	-0.0852804	-0.246941	0.14104	0.285125	0	0	-0.422216	0.114977	0.246459	0.345004	-0.36475	-0.126326	1.13234	1.55987	0	0	0.256653	-0.369466	0.027658	1.30264	0.871224	0	0
1.82	2.71766	1.32891	-1.22834	1.01443	1.59398	0.932373	-0.390028	0.0276341	-0.0996257	0.634888	0.316407	0	0	0.192835	-0.0828578	-0.254625	0.157164	0.260789	0	0	-0.441173	0.107491	0.276814	0.393604	-0.351751	-0.301809	1.03817	1.55987	0	0	0.282636	-0.364403	0.0574859	1.29933	0.866232	0	0
1.83	2.73505	1.33542	-1.25134	1.01293	1.60694	0.930432	-0.36444	0.0107853	-0.0889753	0.698361	0.292288	0	0	0.208615	-0.0826311	-0.273866	0.197242	0.219906	0	0	-0.439033	0.096323	0.28103	0.415127	-0.345179	-0.35648	1.04487	1.55987	0	0	0.28924	-0.366634	0.0642825	1.29813	0.865033	0	0
